<svg width="245" height="175" viewBox="0 0 245 175" fill="none" xmlns="http://www.w3.org/2000/svg">
<path d="M10 0H235C240.523 0 245 4.47715 245 10V165C245 170.523 240.523 175 235 175H10C4.47716 175 0 170.523 0 165V10C0 4.47715 4.47716 0 10 0Z" fill="#397CE5"/>
<path fill-rule="evenodd" clip-rule="evenodd" d="M112.161 35.9905L84.626 35.9905L98.3935 58.3839L112.161 35.9905Z" fill="#E8F1FF"/>
<path fill-rule="evenodd" clip-rule="evenodd" d="M84.6262 139.01H112.161L98.3936 116.616L84.6262 139.01Z" fill="#E8F1FF"/>
<path d="M195.493 107.753C184.315 107.753 175.253 98.6983 175.253 87.5286C175.253 76.359 184.315 67.3043 195.493 67.3043C206.672 67.3043 215.734 76.359 215.734 87.5286C215.734 98.6983 206.672 107.753 195.493 107.753Z" fill="#8AB8FF"/>
<path d="M146.916 107.753C135.737 107.753 126.675 98.6983 126.675 87.5286C126.675 76.359 135.737 67.3043 146.916 67.3043C158.094 67.3043 167.156 76.359 167.156 87.5286C167.156 98.6983 158.094 107.753 146.916 107.753Z" fill="#8AB8FF"/>
<path d="M195.493 87.3494C192.81 87.3494 190.636 85.1763 190.636 82.4956C190.636 79.8149 192.81 77.6418 195.493 77.6418C198.176 77.6418 200.351 79.8149 200.351 82.4956C200.351 85.1763 198.176 87.3494 195.493 87.3494Z" fill="#397CE5"/>
<path fill-rule="evenodd" clip-rule="evenodd" d="M196.708 89.1466H194.279C190.255 89.1466 186.992 92.4063 186.992 96.4274H203.994C203.994 92.4063 200.732 89.1466 196.708 89.1466Z" fill="#397CE5"/>
<path d="M146.916 87.3494C144.233 87.3494 142.058 85.1763 142.058 82.4956C142.058 79.8149 144.233 77.6418 146.916 77.6418C149.599 77.6418 151.773 79.8149 151.773 82.4956C151.773 85.1763 149.599 87.3494 146.916 87.3494Z" fill="#397CE5"/>
<path fill-rule="evenodd" clip-rule="evenodd" d="M148.13 89.1466H145.701C141.677 89.1466 138.415 92.4063 138.415 96.4274H155.417C155.417 92.4063 152.154 89.1466 148.13 89.1466Z" fill="#397CE5"/>
<path d="M49.7608 107.753C38.5822 107.753 29.5202 98.6983 29.5202 87.5286C29.5202 76.359 38.5822 67.3043 49.7608 67.3043C60.9394 67.3043 70.0015 76.359 70.0015 87.5286C70.0015 98.6983 60.9394 107.753 49.7608 107.753Z" fill="#8AB8FF"/>
<path d="M49.7607 87.3494C47.0778 87.3494 44.9029 85.1763 44.9029 82.4956C44.9029 79.8149 47.0778 77.6418 49.7607 77.6418C52.4435 77.6418 54.6184 79.8149 54.6184 82.4956C54.6184 85.1763 52.4435 87.3494 49.7607 87.3494Z" fill="#397CE5"/>
<path fill-rule="evenodd" clip-rule="evenodd" d="M50.9751 89.1466H48.5462C44.5219 89.1466 41.2596 92.4063 41.2596 96.4274H58.2617C58.2617 92.4063 54.9994 89.1466 50.9751 89.1466Z" fill="#397CE5"/>
<mask id="mask0" mask-type="alpha" maskUnits="userSpaceOnUse" x="77" y="68" width="41" height="27">
<path d="M105.826 81.714L98.4605 69.4437C98.181 68.978 97.5766 68.827 97.1106 69.1063C96.9657 69.1931 96.8457 69.3157 96.762 69.4623L89.7683 81.714L78.899 73.6892C78.4619 73.3665 77.8458 73.459 77.5229 73.8957C77.3582 74.1184 77.2952 74.4002 77.3492 74.6717L81.3815 94.9259H97.5953H113.808L117.829 74.7296C117.935 74.1971 117.588 73.6795 117.056 73.5735C116.779 73.5185 116.491 73.585 116.267 73.7561L105.826 81.714Z" fill="white"/>
</mask>
<g mask="url(#mask0)">
<path d="M105.826 81.714L98.4605 69.4437C98.181 68.978 97.5766 68.827 97.1106 69.1063C96.9657 69.1931 96.8457 69.3157 96.762 69.4623L89.7683 81.714L78.899 73.6892C78.4619 73.3665 77.8458 73.459 77.5229 73.8957C77.3582 74.1184 77.2952 74.4002 77.3492 74.6717L81.3815 94.9259H97.5953H113.808L117.829 74.7296C117.935 74.1971 117.588 73.6795 117.056 73.5735C116.779 73.5185 116.491 73.585 116.267 73.7561L105.826 81.714Z" fill="#FFE476"/>
<path d="M117.979 68.0025H97.5947V105.557H117.979V68.0025Z" fill="#E9CE62"/>
</g>
<path fill-rule="evenodd" clip-rule="evenodd" d="M79.9382 103.774H115.262V100.245H79.9382V103.774Z" fill="#FFE476"/>
<path fill-rule="evenodd" clip-rule="evenodd" d="M97.9004 103.774H115.262V100.245H97.9004V103.774Z" fill="#E9CE62"/>
</svg>
