<svg width="245" height="175" viewBox="0 0 245 175" fill="none" xmlns="http://www.w3.org/2000/svg">
<path d="M235 0H10C4.47715 0 0 4.47715 0 10V165C0 170.523 4.47715 175 10 175H235C240.523 175 245 170.523 245 165V10C245 4.47715 240.523 0 235 0Z" fill="#7763EB"/>
<path d="M60.0201 87.5C60.0201 122.25 88.2136 150.421 122.992 150.421C157.77 150.421 185.964 122.25 185.964 87.5C185.964 52.7495 157.77 24.5787 122.992 24.5787C88.2136 24.5787 60.0201 52.7495 60.0201 87.5Z" fill="#322905" stroke="white" stroke-width="4"/>
<path d="M108.233 131.25C108.233 133.15 109.775 134.691 111.677 134.691C113.579 134.691 115.121 133.15 115.121 131.25C115.121 129.35 113.579 127.809 111.677 127.809C109.775 127.809 108.233 129.35 108.233 131.25Z" fill="white"/>
<path fill-rule="evenodd" clip-rule="evenodd" d="M179.076 80.618V94.382L122.992 89.9745V85.0255L179.076 80.618Z" fill="#17C637"/>
<path fill-rule="evenodd" clip-rule="evenodd" d="M66.9077 94.382V80.618L122.992 85.0255V89.9745L66.9077 94.382Z" fill="#FF0351"/>
<path fill-rule="evenodd" clip-rule="evenodd" d="M175.006 109.556L168.116 121.479L121.752 89.6484L124.23 85.3614L175.006 109.556Z" fill="#FF0351"/>
<path fill-rule="evenodd" clip-rule="evenodd" d="M70.9778 65.4437L77.8678 53.5203L124.229 85.3547L121.752 89.642L70.9778 65.4437Z" fill="#FF0351"/>
<path fill-rule="evenodd" clip-rule="evenodd" d="M156.999 132.593L145.072 139.472L120.842 88.737L125.131 86.2637L156.999 132.593Z" fill="#FF0351"/>
<path fill-rule="evenodd" clip-rule="evenodd" d="M88.9851 42.4071L100.911 35.5275L125.138 86.2644L120.85 88.738L88.9851 42.4071Z" fill="#FF0351"/>
<path fill-rule="evenodd" clip-rule="evenodd" d="M129.88 143.539H116.105L120.516 87.5H125.469L129.88 143.539Z" fill="#FF0351"/>
<path fill-rule="evenodd" clip-rule="evenodd" d="M116.104 31.4607L129.88 31.4607L125.469 87.5H120.516L116.104 31.4607Z" fill="#FF0351"/>
<path fill-rule="evenodd" clip-rule="evenodd" d="M100.911 139.473L88.9852 132.593L120.85 86.262L125.138 88.7356L100.911 139.473Z" fill="#FF0351"/>
<path fill-rule="evenodd" clip-rule="evenodd" d="M145.073 35.5275L156.999 42.4071L125.134 88.738L120.846 86.2644L145.073 35.5275Z" fill="#FF0351"/>
<path fill-rule="evenodd" clip-rule="evenodd" d="M77.8677 121.48L70.9777 109.556L121.752 85.3581L124.229 89.6453L77.8677 121.48Z" fill="#FF0351"/>
<path fill-rule="evenodd" clip-rule="evenodd" d="M168.116 53.5203L175.006 65.4437L124.232 89.6419L121.754 85.3547L168.116 53.5203Z" fill="#FF0351"/>
<path d="M90.5221 87.5C90.5221 105.418 105.059 119.944 122.992 119.944C140.925 119.944 155.462 105.418 155.462 87.5C155.462 69.5818 140.925 55.0562 122.992 55.0562C105.059 55.0562 90.5221 69.5818 90.5221 87.5Z" fill="#322905"/>
<path opacity="0.28869" d="M77.7308 87.5C77.7308 112.477 97.9949 132.725 122.992 132.725C147.989 132.725 168.253 112.477 168.253 87.5C168.253 62.5231 147.989 42.2753 122.992 42.2753C97.9949 42.2753 77.7308 62.5231 77.7308 87.5Z" fill="#322905"/>
<path d="M134.676 103.837C135.828 104.989 137.697 104.989 138.85 103.837C140.003 102.685 140.003 100.818 138.85 99.6658L110.324 71.163C109.172 70.0112 107.303 70.0112 106.15 71.163C104.997 72.3149 104.997 74.1823 106.15 75.3342L134.676 103.837Z" fill="#D8D8D8"/>
<path d="M106.15 99.6658C104.997 100.818 104.997 102.685 106.15 103.837C107.303 104.989 109.172 104.989 110.325 103.837L138.85 75.3342C140.003 74.1824 140.003 72.3149 138.85 71.163C137.697 70.0112 135.828 70.0112 134.676 71.163L106.15 99.6658Z" fill="#D8D8D8"/>
<path d="M114.629 87.5C114.629 92.1153 118.373 95.8568 122.992 95.8568C127.611 95.8568 131.355 92.1153 131.355 87.5C131.355 82.8847 127.611 79.1433 122.992 79.1433C118.373 79.1433 114.629 82.8847 114.629 87.5Z" fill="#322905" stroke="white" stroke-width="3"/>
<path d="M120.04 87.5C120.04 89.1289 121.362 90.4494 122.992 90.4494C124.622 90.4494 125.944 89.1289 125.944 87.5C125.944 85.8711 124.622 84.5506 122.992 84.5506C121.362 84.5506 120.04 85.8711 120.04 87.5Z" fill="white"/>
<path d="M222.409 133.642C221.845 132.194 221.049 130.864 220.056 129.702C218.001 127.295 215.132 125.613 211.874 125.066C211.126 124.94 210.362 124.86 209.578 124.86C208.794 124.86 208.03 124.94 207.282 125.066C204.024 125.613 201.156 127.294 199.101 129.701C198.109 130.863 197.312 132.193 196.748 133.641C196.146 135.188 195.803 136.864 195.803 138.624C195.803 140.241 196.096 141.786 196.609 143.227C197.131 144.693 197.886 146.047 198.842 147.237C200.911 149.808 203.885 151.611 207.282 152.181C208.03 152.307 208.794 152.388 209.578 152.388C210.362 152.388 211.126 152.307 211.874 152.181C215.271 151.611 218.245 149.808 220.314 147.237C221.271 146.047 222.025 144.693 222.547 143.227C223.06 141.786 223.353 140.241 223.353 138.624C223.353 136.865 223.011 135.188 222.409 133.642ZM220.793 134.574L218.384 135.963C217.928 134.458 217.094 133.116 215.994 132.044L218.425 130.642C219.452 131.777 220.261 133.108 220.793 134.574ZM216.944 138.624C216.944 142.682 213.64 145.983 209.578 145.983C205.517 145.983 202.213 142.682 202.213 138.624C202.213 134.566 205.517 131.264 209.578 131.264C213.64 131.264 216.944 134.566 216.944 138.624ZM209.578 126.695C210.364 126.695 211.131 126.776 211.874 126.921V129.73C211.139 129.54 210.372 129.429 209.578 129.429C208.785 129.429 208.018 129.54 207.282 129.73V126.921C208.026 126.776 208.793 126.695 209.578 126.695ZM200.732 130.642L203.163 132.044C202.063 133.116 201.229 134.457 200.772 135.963L198.364 134.573C198.896 133.107 199.705 131.777 200.732 130.642ZM198.225 142.295L200.669 140.885C201.059 142.415 201.829 143.791 202.879 144.908L200.458 146.305C199.472 145.137 198.707 143.78 198.225 142.295ZM209.578 150.552C208.793 150.552 208.026 150.471 207.282 150.326V147.517C208.018 147.707 208.785 147.818 209.578 147.818C210.372 147.818 211.139 147.707 211.874 147.517V150.326C211.131 150.471 210.364 150.552 209.578 150.552ZM218.487 140.885L220.932 142.295C220.449 143.78 219.684 145.137 218.698 146.305L216.277 144.908C217.328 143.791 218.098 142.415 218.487 140.885ZM209.578 134.036C212.114 134.036 214.17 136.09 214.17 138.624C214.17 141.157 212.114 143.212 209.578 143.212C207.042 143.212 204.987 141.157 204.987 138.624C204.987 136.09 207.042 134.036 209.578 134.036Z" fill="#8C79FE"/>
<path d="M49.2364 30.4119C48.6723 28.9633 47.876 27.6335 46.8832 26.4713C44.8285 24.0643 41.9597 22.3828 38.7016 21.8358C37.9536 21.7099 37.1895 21.6292 36.4057 21.6292C35.6218 21.6292 34.8577 21.7099 34.1099 21.8358C30.8517 22.3828 27.9837 24.0639 25.9282 26.4704C24.9363 27.6331 24.1399 28.9625 23.5759 30.4109C22.9731 31.9577 22.6306 33.6337 22.6306 35.3933C22.6306 37.0103 22.9238 38.5552 23.4368 39.9965C23.9587 41.4626 24.7129 42.8166 25.6699 44.0062C27.7389 46.578 30.7126 48.3804 34.1099 48.9507C34.8577 49.0766 35.6218 49.1573 36.4057 49.1573C37.1895 49.1573 37.9536 49.0766 38.7016 48.9507C42.0987 48.3803 45.0725 46.5779 47.1415 44.0065C48.0984 42.817 48.8527 41.463 49.3745 39.997C49.8875 38.5556 50.1808 37.0103 50.1808 35.3933C50.1808 33.6342 49.8382 31.9581 49.2364 30.4119ZM47.6204 31.3434L45.2115 32.7327C44.7551 31.2273 43.9219 29.8859 42.8215 28.8141L45.2527 27.4117C46.2796 28.5471 47.0886 29.8774 47.6204 31.3434ZM43.7713 35.3933C43.7713 39.4513 40.4673 42.7529 36.4057 42.7529C32.344 42.7529 29.0401 39.4513 29.0401 35.3933C29.0401 31.3354 32.344 28.0336 36.4057 28.0336C40.4673 28.0336 43.7713 31.3354 43.7713 35.3933ZM36.4057 23.4644C37.1913 23.4644 37.9581 23.5455 38.7016 23.6907V26.4999C37.9661 26.31 37.1993 26.1984 36.4057 26.1984C35.612 26.1984 34.8452 26.31 34.1099 26.4999V23.6907C34.8532 23.5455 35.6201 23.4644 36.4057 23.4644ZM27.5594 27.4113L29.9907 28.8141C28.8904 29.8854 28.0564 31.2269 27.5999 32.7323L25.191 31.343C25.7237 29.8769 26.5326 28.5466 27.5594 27.4113ZM25.052 39.0646L27.4967 37.6546C27.8859 39.1847 28.6563 40.5607 29.7064 41.6776L27.285 43.0742C26.2995 41.907 25.5345 40.5499 25.052 39.0646ZM36.4057 47.3221C35.6201 47.3221 34.8532 47.241 34.1099 47.0958V44.2866C34.8452 44.4766 35.612 44.5881 36.4057 44.5881C37.1993 44.5881 37.9661 44.4766 38.7016 44.2866V47.0958C37.9581 47.241 37.1913 47.3221 36.4057 47.3221ZM45.3146 37.6546L47.7593 39.0651C47.2768 40.5499 46.5119 41.907 45.5254 43.0742L43.1049 41.6776C44.155 40.5611 44.9254 39.1847 45.3146 37.6546ZM36.4057 30.8052C38.9416 30.8052 40.9974 32.8594 40.9974 35.3933C40.9974 37.9271 38.9416 39.9813 36.4057 39.9813C33.8698 39.9813 31.814 37.9271 31.814 35.3933C31.814 32.8594 33.8698 30.8052 36.4057 30.8052Z" fill="#8C79FE"/>
</svg>
